<?xml version="1.0" encoding="UTF-8"?>
<svg width="16.181mm" height="14.952mm" version="1.1">
 <text x="138.84895" y="55.87233" font-family="sans-serif, Ubuntu" font-size="10.583px" letter-spacing="0px" word-spacing="0px" style="line-height:1.25;shape-inside:url(#rect3764);white-space:pre" xml:space="preserve"/>
 <g transform="matrix(.16767 -.80655 .80655 .16767 -39.88 27.674)">
  <rect id="web-square-zig-5" x="28.52" y="50.644" width="10.895" height="10.67" fill="#ebff7f" style="paint-order:stroke fill markers"/>
 </g>
 <g transform="matrix(.51026 .26294 -.26294 .51026 96.743 -17.957)">
  <path d="m-123.62 99.175 8.1785-0.03923-3.5805 6.0708 3.3209-0.10248-3.0979 5.0558 3.3731 0.14752-9.0556 12.317 0.71044-8.022-2.9465 0.0583 3.0838-7.1977-3.9978 0.12342z"/>
  <path id="web-thunder" d="m-124.86 99.707 8.1785-0.03923-3.5805 6.0708 3.3209-0.10247-3.0979 5.0558 3.3731 0.14752-9.0556 12.317 0.71044-8.022-2.9465 0.0583 3.0838-7.1977-3.9978 0.12342z" fill="#ebff7f" stroke="#000" stroke-width=".26458px"/>
 </g>
 <text x="-3.4510455" y="-3.0786695" font-family="sans-serif, Ubuntu" font-size="10.583px" letter-spacing="0px" word-spacing="0px" style="line-height:1.25;shape-inside:url(#rect857);white-space:pre" xml:space="preserve"/>
</svg>
