<?xml version="1.0" encoding="UTF-8"?>
<svg width="160mm" height="90mm" version="1.1" viewBox="0 0 160 90" xmlns="http://www.w3.org/2000/svg" xmlns:cc="http://creativecommons.org/ns#" xmlns:dc="http://purl.org/dc/elements/1.1/" xmlns:rdf="http://www.w3.org/1999/02/22-rdf-syntax-ns#">
 <metadata>
  <rdf:RDF>
   <cc:Work rdf:about="">
    <dc:format>image/svg+xml</dc:format>
    <dc:type rdf:resource="http://purl.org/dc/dcmitype/StillImage"/>
    <dc:title/>
   </cc:Work>
  </rdf:RDF>
 </metadata>
 <g transform="translate(142.3 58.951)">
  <g transform="translate(4.7502 .12802)">
   <rect x="-137.13" y="9.0064" width="10.895" height="10.67" fill="#601e91" style="paint-order:stroke fill markers"/>
   <g transform="matrix(.44827 -.27855 .27855 .44827 -64.019 -74.022)">
    <path d="m-213.46 82.638-2.5218 6.2128s8.7926 3.279 9.0895 3.279 5.8827-5.5493 5.8827-5.5493 6.0077 2.3051 6.5046 2.3051c0.49685 0 5.1177-4.8754 5.1177-4.8754s7.4052 2.7078 7.8628 2.389c0.45759-0.31884 5.6188-5.3072 5.6188-5.3072l6.7313 2.369 5.8322-5.9772-4.2282-4.23-2.789 3.4902-6.7233-2.3459-5.8576 5.3373-7.8259-2.3847-4.704 4.5386-6.7231-2.1881-5.7172 5.5544z"/>
    <path d="m-213.79 81.427-2.5218 6.2128s8.7926 3.279 9.0895 3.279 5.8827-5.5493 5.8827-5.5493 6.0077 2.3051 6.5046 2.3051c0.49685 0 5.1177-4.8753 5.1177-4.8753s7.4052 2.7078 7.8628 2.389 5.6188-5.3072 5.6188-5.3072l6.7313 2.369 5.8322-5.9772-4.2282-4.23-2.789 3.4902-6.7233-2.3459-5.8576 5.3373-7.8259-2.3847-4.704 4.5386-6.7231-2.1881-5.7172 5.5544z" fill="#00fdcf"/>
   </g>
  </g>
  <g>
   <path d="m-65.703-30.483 35.829 3.9636 0.69234-3.2507-36.486-4.0363-0.03494 3.3234m0.72727-6.5741 35.829 3.9636c0.12668-4.4355-3.7082-3.7375-7.1966-4.1234l-21.037-2.3273c-3.4429-0.38087-6.7666-1.7797-7.5951 2.487m33.423 13.679-33.199-3.6727c0.70442 4.0805 3.7379 3.7408 7.1965 4.1234l18.736 2.0727c3.3206 0.36734 5.7757 1.0895 7.2664-2.5234m-30.395-19.999 31.227 3.4545c-0.61566-1.4245-1.327-3.0872-2.9365-3.5761-5.0141-1.5232-11.209-1.316-16.422-1.8927-2.6107-0.28881-5.9525-1.2442-8.5491-0.80149-1.4956 0.25502-2.487 1.6705-3.3191 2.8158m1.0339 23.738c6.6208 5.167 16.405 6.2494 23.995 2.6545l0.03636-0.32871-16.435-1.8182-7.5966-0.50765m6.9248-29.512 16.764 1.8545 0.03636-0.3287c-4.8211-2.5111-11.702-4.7889-16.8-1.5258z" fill="#ff63be"/>
   <path d="m-28.826-37.573-34.138 30.221-19.93-40.327z" fill="#00fdcf" stroke="#000" stroke-width=".0041637" style="paint-order:stroke fill markers"/>
   <path d="m-98.334-34.967 65.581-7.4324-2.0635 16.501-63.687 12.878z" fill="#ebff7f" stroke="#000" stroke-width=".0028069" style="paint-order:stroke fill markers"/>
  </g>
  <g stroke="#000" stroke-width=".0023383">
   <path d="m-54.966 8.6028 58.495-8.872-8.1866 20.866-54.905 3.6438z" style="paint-order:stroke fill markers"/>
   <path d="m-57.351 10.968 58.495-8.872-8.1866 20.866-54.905 3.6438z" fill="#00fdcf" style="paint-order:stroke fill markers"/>
  </g>
  <g stroke="#000" stroke-width=".0024751">
   <path d="m-123.95 1.0863 51.854 7.7961 7.3358 15.569-56.725-4.6467z" style="paint-order:stroke fill markers"/>
   <path d="m-121.14 3.2412 51.854 7.7961 7.3358 15.569-56.725-4.6467z" fill="#ffa9b7" style="paint-order:stroke fill markers"/>
  </g>
  <text font-family="sans-serif, Ubuntu" font-size="10.583px" letter-spacing="0px" word-spacing="0px" style="line-height:1.25;shape-inside:url(#rect3764);white-space:pre" xml:space="preserve"/>
  <g transform="translate(.37311 2.2878)">
   <circle cx="-122.75" cy="-43.74" r="4.8418" fill="#ff63be" style="paint-order:stroke fill markers"/>
   <g transform="matrix(.56637 .29186 -.29186 .56637 -25.499 -73.767)">
    <path d="m-123.62 99.175 8.1785-0.03923-3.5805 6.0708 3.3209-0.10248-3.0979 5.0558 3.3731 0.14752-9.0556 12.317 0.71044-8.022-2.9465 0.0583 3.0838-7.1977-3.9978 0.12342z"/>
    <path d="m-124.86 99.707 8.1785-0.03923-3.5805 6.0708 3.3209-0.10247-3.0979 5.0558 3.3731 0.14752-9.0556 12.317 0.71044-8.022-2.9465 0.0583 3.0838-7.1977-3.9978 0.12342z" fill="#ebff7f" stroke="#000" stroke-width=".26458px"/>
   </g>
  </g>
  <g transform="translate(-2.5087 2.1931)">
   <path d="m8.4148-14.384-10.929-6.5092 11.102-6.2101z" fill="#ebff7f" style="paint-order:stroke fill markers"/>
   <g transform="matrix(.34072 .28802 -.28802 .34072 73.999 -21.591)">
    <path d="m-105.54 90.859a18.131 18.131 0 0 0-18.13 17.936h8.4708a9.6942 9.6942 0 0 1-0.0837-1.2692 9.6942 9.6942 0 0 1 9.6945-9.6945 9.6942 9.6942 0 0 1 9.694 9.6945 9.6942 9.6942 0 0 1-0.0837 1.2692h8.5679a18.131 18.131 0 0 0-18.13-17.936z" style="paint-order:stroke fill markers"/>
    <path d="m-104.36 90.045a18.131 18.131 0 0 0-18.13 17.936h8.4708a9.6942 9.6942 0 0 1-0.0837-1.2692 9.6942 9.6942 0 0 1 9.6945-9.6945 9.6942 9.6942 0 0 1 9.694 9.6945 9.6942 9.6942 0 0 1-0.08371 1.2692h8.568a18.131 18.131 0 0 0-18.13-17.936z" fill="#ff63be" style="paint-order:stroke fill markers"/>
   </g>
  </g>
 </g>
</svg>
