<?xml version="1.0" encoding="UTF-8"?>
<svg width="22.617mm" height="9.8286mm" version="1.1" viewBox="0 0 22.617 9.8286">
 <g transform="matrix(-.77006 .19607 -.19607 -.77006 99.838 5.0343)" fill="#ebff7f">
  <path id="web-triangle" d="m110.56 34.687-10.929-6.5092 11.102-6.2101z" fill="#ebff7f" style="paint-order:stroke fill markers"/>
 </g>
 <g transform="matrix(-.41074 -.084674 .084674 -.41074 -73.652 22.758)">
  <path d="m-213.46 82.638-2.5218 6.2128s8.7926 3.279 9.0895 3.279 5.8827-5.5493 5.8827-5.5493 6.0077 2.3051 6.5046 2.3051c0.49685 0 5.1177-4.8754 5.1177-4.8754s7.4052 2.7078 7.8628 2.389c0.45759-0.31884 5.6188-5.3072 5.6188-5.3072l6.7313 2.369 5.8322-5.9772-4.2282-4.23-2.789 3.4902-6.7233-2.3459-5.8576 5.3373-7.8259-2.3847-4.704 4.5386-6.7231-2.1881-5.7172 5.5544z"/>
  <path id="web-zig" d="m-213.79 81.427-2.5218 6.2128s8.7926 3.279 9.0895 3.279 5.8827-5.5493 5.8827-5.5493 6.0077 2.3051 6.5046 2.3051c0.49685 0 5.1177-4.8753 5.1177-4.8753s7.4052 2.7078 7.8628 2.389 5.6188-5.3072 5.6188-5.3072l6.7313 2.369 5.8322-5.9772-4.2282-4.23-2.789 3.4902-6.7233-2.3459-5.8576 5.3373-7.8259-2.3847-4.704 4.5386-6.7231-2.1881-5.7172 5.5544z" fill="#00fdcf"/>
 </g>
</svg>
