<?xml version="1.0" encoding="UTF-8"?>
<svg width="17.206mm" height="11.85mm" version="1.1" viewBox="0 0 17.206 11.85">
 <g transform="matrix(-.11882 -1.0425 1.0425 -.11882 -67.338 34.42)">
  <circle id="web-circle" cx="19.206" cy="78.41" r="4.8418" fill="#00fdcf" style="paint-order:stroke fill markers"/>
 </g>
 <g transform="matrix(.28455 -.21147 .21147 .28455 13.411 -45.259)">
  <path d="m-105.54 90.859a18.131 18.131 0 0 0-18.13 17.936h8.4708a9.6942 9.6942 0 0 1-0.0837-1.2692 9.6942 9.6942 0 0 1 9.6945-9.6945 9.6942 9.6942 0 0 1 9.694 9.6945 9.6942 9.6942 0 0 1-0.0837 1.2692h8.5679a18.131 18.131 0 0 0-18.13-17.936z" style="paint-order:stroke fill markers"/>
  <path id="web-semi" d="m-104.36 90.045a18.131 18.131 0 0 0-18.13 17.936h8.4708a9.6942 9.6942 0 0 1-0.0837-1.2692 9.6942 9.6942 0 0 1 9.6945-9.6945 9.6942 9.6942 0 0 1 9.694 9.6945 9.6942 9.6942 0 0 1-0.08371 1.2692h8.568a18.131 18.131 0 0 0-18.13-17.936z" fill="#ff63be" style="paint-order:stroke fill markers"/>
 </g>
</svg>
