<?xml version="1.0" encoding="UTF-8"?>
<svg width="54mm" height="72mm" version="1.1" viewBox="0 0 54 72">
 <g transform="matrix(.57332 0 0 .57332 84.005 33.961)">
  <rect id="web-square-zig" x="-137.13" y="9.0064" width="10.895" height="10.67" fill="#601e91" style="paint-order:stroke fill markers"/>
  <g transform="matrix(.44827 -.27855 .27855 .44827 -64.019 -74.022)">
   <path d="m-213.46 82.638-2.5218 6.2128s8.7926 3.279 9.0895 3.279 5.8827-5.5493 5.8827-5.5493 6.0077 2.3051 6.5046 2.3051c0.49685 0 5.1177-4.8754 5.1177-4.8754s7.4052 2.7078 7.8628 2.389c0.45759-0.31884 5.6188-5.3072 5.6188-5.3072l6.7313 2.369 5.8322-5.9772-4.2282-4.23-2.789 3.4902-6.7233-2.3459-5.8576 5.3373-7.8259-2.3847-4.704 4.5386-6.7231-2.1881-5.7172 5.5544z"/>
   <path id="web-zig" d="m-213.79 81.427-2.5218 6.2128s8.7926 3.279 9.0895 3.279 5.8827-5.5493 5.8827-5.5493 6.0077 2.3051 6.5046 2.3051c0.49685 0 5.1177-4.8753 5.1177-4.8753s7.4052 2.7078 7.8628 2.389 5.6188-5.3072 5.6188-5.3072l6.7313 2.369 5.8322-5.9772-4.2282-4.23-2.789 3.4902-6.7233-2.3459-5.8576 5.3373-7.8259-2.3847-4.704 4.5386-6.7231-2.1881-5.7172 5.5544z" fill="#00fdcf"/>
  </g>
 </g>
 <g font-family="sans-serif, Ubuntu" font-size="10.583px" letter-spacing="0px" word-spacing="0px">
  <text x="142.3" y="58.951" style="line-height:1.25;shape-inside:url(#rect3764);white-space:pre" xml:space="preserve"/>
  <text style="line-height:1.25;shape-inside:url(#rect857);white-space:pre" xml:space="preserve"/>
  <text style="line-height:1.25;shape-inside:url(#rect863);white-space:pre" xml:space="preserve"/>
 </g>
 <g transform="matrix(.57332 0 0 .57332 80.288 35.414)">
  <circle id="web-circle-thunder" cx="-122.75" cy="-43.74" r="4.8418" fill="#ff63be" style="paint-order:stroke fill markers"/>
  <g transform="matrix(.56637 .29186 -.29186 .56637 -25.499 -73.767)">
   <path d="m-123.62 99.175 8.1785-0.03923-3.5805 6.0708 3.3209-0.10248-3.0979 5.0558 3.3731 0.14752-9.0556 12.317 0.71044-8.022-2.9465 0.0583 3.0838-7.1977-3.9978 0.12342z"/>
   <path id="web-thunder" d="m-124.86 99.707 8.1785-0.03923-3.5805 6.0708 3.3209-0.10247-3.0979 5.0558 3.3731 0.14752-9.0556 12.317 0.71044-8.022-2.9465 0.0583 3.0838-7.1977-3.9978 0.12342z" fill="#ebff7f" stroke="#000" stroke-width=".26458px"/>
  </g>
 </g>
 <g transform="matrix(.57332 0 0 .57332 39.366 46.813)">
  <path id="web-triangle-semi" d="m8.4148-14.384-10.929-6.5092 11.102-6.2101z" fill="#ebff7f" style="paint-order:stroke fill markers"/>
  <g transform="matrix(.34072 .28802 -.28802 .34072 73.999 -21.591)">
   <path d="m-105.54 90.859a18.131 18.131 0 0 0-18.13 17.936h8.4708a9.6942 9.6942 0 0 1-0.0837-1.2692 9.6942 9.6942 0 0 1 9.6945-9.6945 9.6942 9.6942 0 0 1 9.694 9.6945 9.6942 9.6942 0 0 1-0.0837 1.2692h8.5679a18.131 18.131 0 0 0-18.13-17.936z" style="paint-order:stroke fill markers"/>
   <path id="web-semi" d="m-104.36 90.045a18.131 18.131 0 0 0-18.13 17.936h8.4708a9.6942 9.6942 0 0 1-0.0837-1.2692 9.6942 9.6942 0 0 1 9.6945-9.6945 9.6942 9.6942 0 0 1 9.694 9.6945 9.6942 9.6942 0 0 1-0.08371 1.2692h8.568a18.131 18.131 0 0 0-18.13-17.936z" fill="#ff63be" style="paint-order:stroke fill markers"/>
  </g>
 </g>
 <g transform="translate(-116.08 30.627)">
  <g transform="matrix(.57332 0 0 .57332 160.86 20.425)" stroke="#000" stroke-width=".0023383">
   <path d="m-54.966 8.6028 58.495-8.872-8.1866 20.866-54.905 3.6438z" style="paint-order:stroke fill markers"/>
   <path id="web-subtitle-developer" d="m-57.351 10.968 58.495-8.872-8.1866 20.866-54.905 3.6438z" fill="#00fdcf" style="paint-order:stroke fill markers"/>
  </g>
  <g id="web-developer" transform="matrix(.5728 -.024421 .024421 .5728 79.275 -7.2557)" fill="#fff" stroke-width=".26458" aria-label="Developer">
   <path d="m87.501 71.96 0.0127-0.1143q0.381-2.3368 0.381-4.3053 0-1.6891-0.2159-2.5019l-0.0635-0.2794q-0.0635-0.127-0.0635-0.3048 0-0.4572 0.4826-0.7493 0.4953-0.3556 1.5367-0.3556t1.7272 0.4064q0.6858 0.3937 1.0668 1.0668 0.7493 1.3208 0.7493 3.0734 0 1.6129-0.4826 2.8448-0.254 0.6731-0.6604 1.1557t-1.0541 0.7874q-0.635 0.2921-1.4478 0.2921-0.6096 0-1.0922-0.1524-0.4699-0.1397-0.6731-0.3429-0.2032-0.2159-0.2032-0.5207zm3.6576-4.2926q0-2.0955-0.5842-2.6924-0.2032-0.2159-0.381-0.2159-0.3175 0-0.3556 0.3175-0.2032 1.3081-0.2032 3.8354 0 0.8763 0.0635 1.6764 0 0.2794 0.2794 0.2794 1.1811 0 1.1811-3.2004z"/>
   <path d="m94.982 68.9q0 0.0762 0.0508 0.127 0.0508 0.0635 0.127 0.0635 0.7239-0.0635 0.9652-0.6858 0.0635-0.1397 0.0889-0.3302-0.0127-0.4445-0.3556-0.4445-0.3937 0-0.6096 0.381-0.2032 0.381-0.2667 0.889zm0.8636-2.4384q0.8509 0 1.3208 0.4318 0.4826 0.4318 0.4826 1.3081 0 0.8763-0.6985 1.4478-0.6858 0.5715-1.7399 0.5715-0.1524 0-0.1524 0.1524 0 0.3048 0.2159 0.5334 0.2286 0.2159 0.6096 0.2159 0.3937 0 0.6985-0.3556 0.3175-0.3556 0.5461-0.3556 0.2413 0 0.381 0.2032t0.1397 0.5842q0 0.3683-0.1905 0.7493-0.1778 0.3683-0.4318 0.5588t-0.5715 0.3048q-0.4699 0.1778-1.0033 0.1778-0.5207 0-0.9779-0.254t-0.7112-0.6858q-0.4953-0.8636-0.4953-1.905 0-1.0541 0.254-1.8288 0.254-0.7747 0.8636-1.3081 0.6223-0.5461 1.4605-0.5461z"/>
   <path d="m102.08 66.283q0.4445 0 0.6223 0.4572t0.1778 1.0033q0 0.5461-0.1778 1.1557-0.1651 0.5969-0.4191 1.0668-0.508 0.9398-0.9144 1.4605l-0.1778 0.2159q-1.0287 1.3462-1.6002 1.3462-0.7493 0-1.1938-3.2893-0.0889-0.6604-0.254-1.0922-0.1524-0.4445-0.2667-0.5461l-0.1143-0.1016q-0.2159-0.1651-0.2159-0.3683 0-0.381 0.6223-0.7493 0.635-0.3683 1.0414-0.3683t0.4826 0.4318q0.1143 0.4572 0.2413 1.7272 0.127 1.27 0.4064 1.7653 0.0508 0.127 0.1524 0.127 0.1143 0 0.2032-0.1016 0.6096-0.6858 0.6096-1.7526 0-0.3048-0.1524-0.6223-0.1524-0.3175-0.3556-0.4318-0.1905-0.127-0.1905-0.2921 0-0.381 0.5207-0.7112t0.9525-0.3302z"/>
   <path d="m104.74 68.9q0 0.0762 0.0508 0.127 0.0508 0.0635 0.127 0.0635 0.7239-0.0635 0.9652-0.6858 0.0635-0.1397 0.0889-0.3302-0.0127-0.4445-0.3556-0.4445-0.3937 0-0.6096 0.381-0.2032 0.381-0.2667 0.889zm0.8636-2.4384q0.8509 0 1.3208 0.4318 0.4826 0.4318 0.4826 1.3081 0 0.8763-0.6985 1.4478-0.6858 0.5715-1.7399 0.5715-0.1524 0-0.1524 0.1524 0 0.3048 0.2159 0.5334 0.2286 0.2159 0.6096 0.2159 0.3937 0 0.6985-0.3556 0.3175-0.3556 0.5461-0.3556 0.2413 0 0.381 0.2032t0.1397 0.5842q0 0.3683-0.1905 0.7493-0.1778 0.3683-0.4318 0.5588t-0.5715 0.3048q-0.4699 0.1778-1.0033 0.1778-0.5207 0-0.9779-0.254t-0.7112-0.6858q-0.4953-0.8636-0.4953-1.905 0-1.0541 0.254-1.8288 0.254-0.7747 0.8636-1.3081 0.6223-0.5461 1.4605-0.5461z"/>
   <path d="m109.85 63.731q0 0.7493-0.0889 1.9431-0.0762 1.1811-0.0762 2.5273 0 1.3462 0.0254 2.2479 0.0381 0.889 0.4445 1.1811 0.2159 0.127 0.2159 0.3937t-0.3302 0.4953q-0.6096 0.4191-1.3716 0.4191-0.5207 0-0.6477-0.4318-0.0381-0.1778-0.0381-0.4191 0-0.254 0.0127-0.5715 0.0254-0.3175 0.0508-0.8255 0.1143-2.286 0.1143-3.6068 0-1.3335-0.0381-1.6129-0.0508-0.4572-0.3175-0.6477l-0.0889-0.0635q-0.1651-0.1143-0.1651-0.3048 0-0.4191 0.7112-0.8001 0.7239-0.381 1.1303-0.381 0.4572 0 0.4572 0.4572z"/>
   <path d="m112.99 66.372q1.1049 0 1.6764 0.9652 0.5842 0.9652 0.5842 2.3622 0 1.8415-1.0541 2.794-0.5842 0.5207-1.2954 0.5207t-1.1811-0.2921q-0.4572-0.2921-0.6985-0.7747-0.4953-0.9398-0.4953-2.0066 0-1.2446 0.5715-2.3368 0.2794-0.5461 0.7747-0.889t1.1176-0.3429zm0.7366 2.7051q0-0.381-0.1524-0.6858-0.1524-0.3048-0.508-0.3048-0.3429 0-0.6731 0.4953-0.3175 0.4826-0.3175 1.1811 0 0.9779 0.6477 0.9779 0.3556 0 0.6731-0.4445 0.3302-0.4445 0.3302-1.2192z"/>
   <path d="m116.94 66.347q0.4191 0 0.4191 0.7493 0.0381 0.0762 0.0762 0.0762 0.0508 0 0.1016-0.0635 0.0508-0.0762 0.127-0.1651 0.0889-0.1016 0.3556-0.254 0.2794-0.1524 0.6858-0.1524t0.7874 0.2794q0.381 0.2667 0.5842 0.7366 0.381 0.8763 0.381 2.1336 0 0.3937-0.1524 1.0287-0.1397 0.635-0.3429 1.0668-0.2032 0.4191-0.6223 0.7493t-0.9779 0.3302q-0.3048 0-0.5461-0.1016t-0.3302-0.2032l-0.1016-0.0889q-0.0381-0.0381-0.0762-0.0381-0.0635 0-0.0889 0.1143-0.0381 0.635-0.0381 1.2446 0 0.6223 0.0254 0.9779 0.0381 0.3683 0.0381 0.4572 0 0.4191-0.2921 0.6477-0.6731 0.5715-1.6383 0.5715-0.381 0-0.381-0.3683l0.0381-0.2286q0.3429-0.9779 0.508-2.2098 0.1778-1.2319 0.2032-2.1209 0.0381-0.9017 0.0381-1.7907 0-0.9017-0.0127-1.1811-0.0381-0.4699-0.3302-0.635l-0.0889-0.0635q-0.1651-0.1524-0.1651-0.3048 0-0.4318 0.6604-0.8128 0.6731-0.381 1.1557-0.381zm0.4064 2.9718q0 0.5461 0.2159 0.9652 0.2286 0.4064 0.5334 0.4064t0.508-0.3302q0.2032-0.3429 0.2032-0.889 0-0.5588-0.2286-0.9652-0.2286-0.4191-0.5334-0.4191t-0.508 0.3429q-0.1905 0.3429-0.1905 0.889z"/>
   <path d="m122.44 68.9q0 0.0762 0.0508 0.127 0.0508 0.0635 0.127 0.0635 0.7239-0.0635 0.9652-0.6858 0.0635-0.1397 0.0889-0.3302-0.0127-0.4445-0.3556-0.4445-0.3937 0-0.6096 0.381-0.2032 0.381-0.2667 0.889zm0.8636-2.4384q0.8509 0 1.3208 0.4318 0.4826 0.4318 0.4826 1.3081 0 0.8763-0.6985 1.4478-0.6858 0.5715-1.7399 0.5715-0.1524 0-0.1524 0.1524 0 0.3048 0.2159 0.5334 0.2286 0.2159 0.6096 0.2159 0.3937 0 0.6985-0.3556 0.3175-0.3556 0.5461-0.3556 0.2413 0 0.381 0.2032t0.1397 0.5842q0 0.3683-0.1905 0.7493-0.1778 0.3683-0.4318 0.5588t-0.5715 0.3048q-0.4699 0.1778-1.0033 0.1778-0.5207 0-0.9779-0.254t-0.7112-0.6858q-0.4953-0.8636-0.4953-1.905 0-1.0541 0.254-1.8288 0.254-0.7747 0.8636-1.3081 0.6223-0.5461 1.4605-0.5461z"/>
   <path d="m127.44 71.732 0.0254 0.3175q0 0.4191-0.2921 0.6223-0.4953 0.3429-1.2573 0.3429-0.4826 0-0.4826-0.4191l0.0381-0.2159q0.3048-1.4986 0.3048-3.6703 0-0.6604-0.3937-0.9398-0.1397-0.0889-0.1397-0.2921 0-0.3937 0.6223-0.762 0.635-0.381 1.016-0.381t0.4318 0.4191q0.0508 0.2921 0.0508 0.4445 0 0.1397 0.1016 0.1397 0.0635 0 0.0889-0.0508 0.0381-0.0635 0.0635-0.1143 0.0381-0.0635 0.1524-0.2032 0.1143-0.1524 0.2413-0.254 0.3302-0.2921 0.7366-0.2921 0.2667 0 0.5334 0.1651 0.4953 0.3048 0.4953 1.2065 0 0.5715-0.2286 0.9906t-0.7366 0.4191q-0.635 0-0.635-0.6985l0.0127-0.1905q0-0.2159-0.1778-0.2159-0.6731 0-0.6731 1.9431 0 0.508 0.1016 1.6891z"/>
  </g>
 </g>
 <g transform="translate(-80.153 13.89)">
  <g transform="matrix(.57332 0 0 .57332 160.86 20.424)" stroke="#000" stroke-width=".0024751">
   <path d="m-123.95 1.0863 51.854 7.7961 7.3358 15.569-56.725-4.6467z" style="paint-order:stroke fill markers"/>
   <path id="web-subtitle-front" d="m-121.14 3.2412 51.854 7.7961 7.3358 15.569-56.725-4.6467z" fill="#ffa9b7" style="paint-order:stroke fill markers"/>
  </g>
  <g id="web-front" transform="matrix(.57229 .03425 -.03425 .57229 79.275 -7.2557)" fill="#fff" stroke-width=".26458" aria-label="Front-end">
   <path d="m34.167 59.03 0.508-0.0127q0.3556 0 0.3556 0.381 0 0.508-0.3556 0.7874-0.3556 0.2667-0.889 0.3048-0.1905 0-0.3556 0.1016-0.1524 0.0889-0.1651 0.2032-0.0889 0.9271-0.0889 2.159t0.127 2.4257q0.0381 0.127 0.0381 0.2794 0 0.1651-0.0762 0.3175-0.2413 0.4318-0.7112 0.6985-0.635 0.3429-1.1303 0.3429-0.4826 0-0.4826-0.3556l0.0508-0.254q0.4953-2.032 0.4953-5.3975v-0.1524q0-0.0762-0.0635-0.0762-0.4826 0-0.4826-0.4318 0-0.254 0.2159-0.7112 0.2159-0.4699 0.4572-0.5334 0.0127-0.1651 0.0127-0.4064 0-1.1684-0.381-1.4732-0.127-0.1524-0.127-0.381 0-0.4064 0.5334-0.7239 1.016-0.5461 2.3749-0.5461 0.3302 0 0.5334 0.0254 0.2159 0.0254 0.4191 0.1778 0.2032 0.1397 0.2032 0.4191 0 0.4699-0.6858 0.6731t-0.9271 0.5588-0.2413 0.9906q0 0.1397 0.0254 0.4191 0.0127 0.1905 0.8128 0.1905z"/>
   <path d="m37.33 64.072 0.0254 0.3175q0 0.4191-0.2921 0.6223-0.4953 0.3429-1.2573 0.3429-0.4826 0-0.4826-0.4191l0.0381-0.2159q0.3048-1.4986 0.3048-3.6703 0-0.6604-0.3937-0.9398-0.1397-0.0889-0.1397-0.2921 0-0.3937 0.6223-0.762 0.635-0.381 1.016-0.381t0.4318 0.4191q0.0508 0.2921 0.0508 0.4445 0 0.1397 0.1016 0.1397 0.0635 0 0.0889-0.0508 0.0381-0.0635 0.0635-0.1143 0.0381-0.0635 0.1524-0.2032 0.1143-0.1524 0.2413-0.254 0.3302-0.2921 0.7366-0.2921 0.2667 0 0.5334 0.1651 0.4953 0.3048 0.4953 1.2065 0 0.5715-0.2286 0.9906t-0.7366 0.4191q-0.635 0-0.635-0.6985l0.0127-0.1905q0-0.2159-0.1778-0.2159-0.6731 0-0.6731 1.9431 0 0.508 0.1016 1.6891z"/>
   <path d="m42.016 58.713q1.1049 0 1.6764 0.9652 0.5842 0.9652 0.5842 2.3622 0 1.8415-1.0541 2.794-0.5842 0.5207-1.2954 0.5207t-1.1811-0.2921q-0.4572-0.2921-0.6985-0.7747-0.4953-0.9398-0.4953-2.0066 0-1.2446 0.5715-2.3368 0.2794-0.5461 0.7747-0.889t1.1176-0.3429zm0.7366 2.7051q0-0.381-0.1524-0.6858t-0.508-0.3048q-0.3429 0-0.6731 0.4953-0.3175 0.4826-0.3175 1.1811 0 0.9779 0.6477 0.9779 0.3556 0 0.6731-0.4445 0.3302-0.4445 0.3302-1.2192z"/>
   <path d="m46.474 61.811-0.0254 0.9525q0 0.381 0.0381 1.0287l0.0381 0.6477q0 0.4191-0.2921 0.6223-0.4699 0.3302-1.2065 0.3302-0.5207 0-0.5207-0.4445l0.0254-0.2032q0.3175-1.4859 0.3175-2.5146 0.0127-1.0287-0.0635-1.3716-0.0635-0.3429-0.2794-0.5715-0.2159-0.2413-0.2159-0.3937 0-0.4191 0.6604-0.8001t1.0414-0.381q0.3937 0 0.4445 0.4191 0.0254 0.5588 0.1397 0.5588 0.0381 0 0.0889-0.0381 0.0508-0.0889 0.1524-0.2159 0.1143-0.127 0.4699-0.3302 0.3683-0.2159 0.8382-0.2159t0.7747 0.381 0.3683 0.9017q0.0254 0.2159 0.0254 0.7112l-0.0508 1.8796q0 0.8636 0.3937 1.1811 0.2286 0.1143 0.2286 0.2921 0 0.1651-0.1016 0.3048-0.4826 0.6858-1.5748 0.6858-0.5207-0.0127-0.6096-0.4191-0.0381-0.1778-0.0381-0.5461 0-0.381 0.0635-1.1811 0.0762-0.8128 0.0762-1.1938 0-1.1303-0.508-1.1303-0.3302 0-0.5207 0.3556-0.1778 0.3556-0.1778 0.6985z"/>
   <path d="m51.82 57.011-0.0254 0.6096q0 0.3302 0.1397 0.3683 0.1524 0.0381 0.2921 0.0381t0.4191-0.0254q0.2667 0 0.2667 0.3429 0 0.6477-0.9271 1.0033-0.127 0.0508-0.1778 0.2286-0.0762 0.7747-0.0762 1.8161t0.0762 1.3716q0.0635 0.3048 0.4572 0.3683 0.0889 0 0.1651 0.0889 0.1397 0.1651 0.1397 0.3302 0 0.1524-0.0254 0.3048-0.0254 0.1397-0.127 0.4064-0.0889 0.254-0.2413 0.4826-0.1397 0.2159-0.4318 0.381t-0.6604 0.1651q-0.635 0-0.9144-0.7493-0.1016-0.2921-0.1016-0.6985l0.1016-3.4163q0-0.6223-0.0762-1.016-0.0635-0.3937-0.4826-0.7366-0.1778-0.127-0.1778-0.3556t0.2286-0.4572q0.6985-0.4318 1.2827-1.3589 0.1778-0.2413 0.4445-0.2413 0.4318 0 0.4318 0.7493z"/>
   <path d="m57.954 62.396q-0.2413-0.0254-1.3208-0.0254l-3.1496 0.0254q-0.1651 0-0.254-0.127-0.0889-0.1397-0.0889-0.3429t0.1143-0.381 0.3429-0.1905q2.0193 0.0127 3.0607 0.0127t1.1684-0.0127q0.2286 0.0127 0.3556 0.1778t0.127 0.3683-0.1016 0.3429q-0.0889 0.1397-0.254 0.1524z"/>
   <path d="m60.66 61.24q0 0.0762 0.0508 0.127 0.0508 0.0635 0.127 0.0635 0.7239-0.0635 0.9652-0.6858 0.0635-0.1397 0.0889-0.3302-0.0127-0.4445-0.3556-0.4445-0.3937 0-0.6096 0.381-0.2032 0.381-0.2667 0.889zm0.8636-2.4384q0.8509 0 1.3208 0.4318 0.4826 0.4318 0.4826 1.3081t-0.6985 1.4478q-0.6858 0.5715-1.7399 0.5715-0.1524 0-0.1524 0.1524 0 0.3048 0.2159 0.5334 0.2286 0.2159 0.6096 0.2159 0.3937 0 0.6985-0.3556 0.3175-0.3556 0.5461-0.3556 0.2413 0 0.381 0.2032t0.1397 0.5842q0 0.3683-0.1905 0.7493-0.1778 0.3683-0.4318 0.5588t-0.5715 0.3048q-0.4699 0.1778-1.0033 0.1778-0.5207 0-0.9779-0.254t-0.7112-0.6858q-0.4953-0.8636-0.4953-1.905 0-1.0541 0.254-1.8288t0.8636-1.3081q0.6223-0.5461 1.4605-0.5461z"/>
   <path d="m65.663 61.811-0.0254 0.9525q0 0.381 0.0381 1.0287l0.0381 0.6477q0 0.4191-0.2921 0.6223-0.4699 0.3302-1.2065 0.3302-0.5207 0-0.5207-0.4445l0.0254-0.2032q0.3175-1.4859 0.3175-2.5146 0.0127-1.0287-0.0635-1.3716-0.0635-0.3429-0.2794-0.5715-0.2159-0.2413-0.2159-0.3937 0-0.4191 0.6604-0.8001t1.0414-0.381q0.3937 0 0.4445 0.4191 0.0254 0.5588 0.1397 0.5588 0.0381 0 0.0889-0.0381 0.0508-0.0889 0.1524-0.2159 0.1143-0.127 0.4699-0.3302 0.3683-0.2159 0.8382-0.2159t0.7747 0.381 0.3683 0.9017q0.0254 0.2159 0.0254 0.7112l-0.0508 1.8796q0 0.8636 0.3937 1.1811 0.2286 0.1143 0.2286 0.2921 0 0.1651-0.1016 0.3048-0.4826 0.6858-1.5748 0.6858-0.5207-0.0127-0.6096-0.4191-0.0381-0.1778-0.0381-0.5461 0-0.381 0.0635-1.1811 0.0762-0.8128 0.0762-1.1938 0-1.1303-0.508-1.1303-0.3302 0-0.5207 0.3556-0.1778 0.3556-0.1778 0.6985z"/>
   <path d="m73.931 62.383 0.0127 0.3048v0.0508q0 0.6731 0.4064 0.9525 0.1905 0.1524 0.1905 0.3302t-0.0889 0.3048q-0.2794 0.4064-0.6985 0.6477-0.5588 0.3302-0.9779 0.3302t-0.4572-0.4064q-0.0254-0.3175-0.127-0.3175l-0.0889 0.0508q-0.4318 0.5969-1.143 0.5969-0.5207 0-0.9017-0.2667-0.3683-0.2667-0.5588-0.7239-0.3683-0.8636-0.3683-1.9431 0-1.1557 0.5842-2.2225 0.2921-0.508 0.7874-0.8255 0.4953-0.3302 1.0922-0.3302 0.2794 0 0.4572 0.0762l0.1778 0.0762q0.0889 0 0.1016-0.2032 0.0254-0.2032 0.0254-0.5207 0-0.3302-0.0254-0.5334-0.0254-0.2159-0.0635-0.3175t-0.0889-0.1651q-0.0762-0.1016-0.254-0.2159-0.1651-0.1143-0.1651-0.3175 0-0.4191 0.7112-0.8001 0.7239-0.381 1.1938-0.381 0.3556 0 0.3937 0.3175 0.0254 0.127 0.0254 0.508t-0.0889 1.5494q-0.0762 1.1684-0.0762 2.2352v1.27l0.0127 0.6477zm-2.6416 0.5842q0.4699 0 0.7493-0.5334 0.2921-0.5334 0.2921-0.9525 0-0.9906-0.5461-0.9906-0.4445 0-0.7493 0.5715-0.2921 0.5588-0.2921 1.0668 0 0.7874 0.5461 0.8382z"/>
  </g>
 </g>
 <g transform="translate(-100.34 12.474)">
  <g transform="matrix(.57332 0 0 .57332 21.849 -10.322)">
   <path id="web-title-circle" d="m180.12 34.236 35.829 3.9636 0.69234-3.2507-36.486-4.0363-0.0349 3.3234m0.72728-6.5741 35.829 3.9636c0.12668-4.4355-3.7082-3.7375-7.1966-4.1234l-21.037-2.3273c-3.4429-0.38087-6.7666-1.7797-7.5951 2.487m33.423 13.679-33.199-3.6727c0.70441 4.0805 3.7379 3.7408 7.1965 4.1234l18.736 2.0727c3.3206 0.36734 5.7757 1.0895 7.2664-2.5234m-30.395-19.999 31.227 3.4545c-0.61566-1.4245-1.327-3.0872-2.9365-3.5761-5.0141-1.5232-11.209-1.316-16.422-1.8927-2.6107-0.28881-5.9525-1.2442-8.5491-0.80149-1.4956 0.25502-2.487 1.6705-3.3191 2.8158m1.0339 23.738c6.6208 5.167 16.405 6.2494 23.995 2.6545l0.0364-0.32871-16.435-1.8182-7.5966-0.50765m6.9248-29.512 16.764 1.8545 0.0364-0.3287c-4.8211-2.5111-11.702-4.7889-16.8-1.5258z" fill="#ff63be"/>
   <path id="web-title-triangle" d="m217 27.146-34.138 30.221-19.93-40.327z" fill="#00fdcf" stroke="#000" stroke-width=".0041637" style="paint-order:stroke fill markers"/>
   <path id="web-title-rectangle" d="m147.49 29.752 65.581-7.4324-2.0635 16.501-63.687 12.878z" fill="#ebff7f" stroke="#000" stroke-width=".0028069" style="paint-order:stroke fill markers"/>
  </g>
  <g id="web-title-sara" transform="matrix(.57332 0 0 .57332 79.275 -7.2557)" fill="#601e91" stroke-width=".45715" aria-label="Sara Alite ">
   <path d="m54.996 26.406q0.47543 0.60343 0.80458 1.4812 0.32915 0.87772 0.32915 1.8652 0 0.96915-0.256 1.7006-0.23772 0.73144-0.65829 1.152-0.40229 0.42058-0.82286 0.69486-0.40229 0.27429-0.87772 0.384-0.71315 0.16457-1.0789 0.16457-1.6092 0-2.5417-0.93258-0.9143-0.93258-0.9143-2.432 0-0.84115 0.40229-1.5726 0.42058-0.74972 1.0606-0.74972 0.21943 0 0.34743 0.16457 0.14629 0.16457 0.18286 0.56686 0.03657 0.40229 0.16457 0.78629 0.128 0.36572 0.27429 0.54858 0.14629 0.16457 0.32915 0.27429 0.256 0.128 0.43886 0.128 0.45715 0 0.71315-0.31086 0.256-0.32915 0.256-0.85944t-0.34743-1.152q-0.34743-0.64001-0.84115-1.2069-0.47543-0.58515-0.96915-1.1703-1.1886-1.408-1.1886-2.6697 0-1.6457 1.0972-2.5235 1.1154-0.89601 2.8343-0.89601 0.95087 0 1.3532 0.36572 0.42058 0.36572 0.42058 1.2983 0 0.9143-0.53029 0.9143-0.18286 0-0.49372-0.128-0.29257-0.14629-0.67658-0.14629t-0.64001 0.31086q-0.256 0.31086-0.256 0.78629 0 0.45715 0.32915 0.98744t0.80458 1.0606q0.47543 0.512 0.95087 1.1154z"/>
   <path d="m59.037 30.429q0 0.76801 0.54858 0.76801t0.87772-0.56686q0.34743-0.56686 0.34743-1.0057 0-0.82286-0.58515-0.82286-0.53029 0-0.85944 0.53029t-0.32915 1.0972zm3.9315-2.9075-0.05486 2.5417q0 1.5177 0.384 1.7554 0.23772 0.18286 0.23772 0.47543 0 0.53029-0.71315 0.98744-0.69486 0.45715-1.4263 0.45715-0.36572 0-0.54858-0.16457-0.18286-0.14629-0.18286-0.32915 0-0.49372-0.128-0.49372-0.01829 0-0.23772 0.21943-0.20114 0.20114-0.62172 0.42058-0.40229 0.20114-1.0423 0.20114-0.62172 0-1.1154-0.31086-0.47543-0.31086-0.65829-0.80458-0.32915-0.82287-0.32915-1.536t0.21943-1.3349q0.21943-0.62172 0.54858-1.0057t0.76801-0.67658q0.43886-0.31086 0.82287-0.43886 0.384-0.14629 0.78629-0.23772 0.56686-0.10972 0.78629-0.10972l0.18286-0.23772q-0.01829-0.62172-0.9143-0.62172-0.87772 0-1.4446 0.34743-0.21943 0.14629-0.43886 0.14629-0.43886 0-0.43886-0.65829 0-1.7006 2.7063-1.7006 2.0846 0 2.6149 1.3897 0.23772 0.62172 0.23772 1.7189z"/>
   <path d="m66.698 31.983 0.03657 0.45715q0 0.60344-0.42058 0.89601-0.71315 0.49372-1.8103 0.49372-0.69486 0-0.69486-0.60343l0.05486-0.31086q0.43886-2.1577 0.43886-5.2846 0-0.95087-0.56686-1.3532-0.20114-0.128-0.20114-0.42058 0-0.56686 0.89601-1.0972 0.9143-0.54858 1.4629-0.54858t0.62172 0.60343q0.07314 0.42058 0.07314 0.64001 0 0.20114 0.14629 0.20114 0.09143 0 0.128-0.07314 0.05486-0.09143 0.09143-0.16457 0.05486-0.09143 0.21943-0.29257 0.16457-0.21943 0.34743-0.36572 0.47543-0.42058 1.0606-0.42058 0.384 0 0.76801 0.23772 0.71315 0.43886 0.71315 1.7372 0 0.82287-0.32915 1.4263-0.32915 0.60344-1.0606 0.60344-0.9143 0-0.9143-1.0057l0.01829-0.27429q0-0.31086-0.256-0.31086-0.96915 0-0.96915 2.7977 0 0.73144 0.14629 2.432z"/>
   <path d="m71.983 30.429q0 0.76801 0.54858 0.76801t0.87772-0.56686q0.34743-0.56686 0.34743-1.0057 0-0.82286-0.58515-0.82286-0.53029 0-0.85944 0.53029-0.32915 0.53029-0.32915 1.0972zm3.9315-2.9075-0.05486 2.5417q0 1.5177 0.384 1.7554 0.23772 0.18286 0.23772 0.47543 0 0.53029-0.71315 0.98744-0.69486 0.45715-1.4263 0.45715-0.36572 0-0.54858-0.16457-0.18286-0.14629-0.18286-0.32915 0-0.49372-0.128-0.49372-0.01829 0-0.23772 0.21943-0.20114 0.20114-0.62172 0.42058-0.40229 0.20114-1.0423 0.20114-0.62172 0-1.1154-0.31086-0.47543-0.31086-0.65829-0.80458-0.32915-0.82287-0.32915-1.536t0.21943-1.3349q0.21943-0.62172 0.54858-1.0057 0.32915-0.384 0.76801-0.67658 0.43886-0.31086 0.82287-0.43886 0.384-0.14629 0.78629-0.23772 0.56686-0.10972 0.78629-0.10972l0.18286-0.23772q-0.01829-0.62172-0.9143-0.62172-0.87772 0-1.4446 0.34743-0.21943 0.14629-0.43886 0.14629-0.43886 0-0.43886-0.65829 0-1.7006 2.7063-1.7006 2.0846 0 2.6149 1.3897 0.23772 0.62172 0.23772 1.7189z"/>
   <path d="m89.483 31.709q0.31086 0.21943 0.31086 0.56686 0 0.67658-0.9143 1.1337-0.89601 0.45715-1.664 0.45715-0.60344 0-0.87772-0.27429-0.21943-0.21943-0.23772-0.64001-0.01829-0.43886-0.03657-0.93258-0.01829-0.49372-0.03657-0.89601 0-0.40229-0.16457-0.67658-0.16457-0.29258-0.31086-0.34743-0.16457-0.07314-0.9143-0.07314-0.73144 0-1.1337 0.16457-0.40229 0.18286-0.76801 1.7006-0.09143 0.36572-0.10972 0.40229-0.49372 1.664-2.3955 1.664-0.89601 0-0.89601-0.53029 0-0.384 0.29258-0.84115l0.10972-0.16457q1.3532-2.4686 2.4503-6.1806 1.1154-3.7303 1.1154-4.5349 0-0.31086-0.10972-0.53029-0.09143-0.23772-0.09143-0.36572 0-0.9143 1.5726-0.9143 0.96915 0 1.664 0.384 0.71315 0.36572 0.89601 1.1703 0.76801 6.0343 1.3532 8.1189 0.42058 1.8103 0.89601 2.1395zm-4.5166-6.8206q-0.01829-0.21943-0.128-0.21943-0.05486 0-0.18286 0.16457-0.74972 1.9749-0.74972 2.7246 0 0.21943 0.14629 0.27429 0.14629 0.05486 0.54858 0.05486 0.40229 0 0.56686-0.09143 0.18286-0.10972 0.18286-0.34743-0.14629-1.6092-0.32915-2.3589z"/>
   <path d="m92.902 20.463q0 1.0789-0.128 2.7977-0.10972 1.7006-0.10972 3.6389t0.03657 3.2366q0.05486 1.28 0.64001 1.7006 0.31086 0.18286 0.31086 0.56686t-0.47543 0.71315q-0.87772 0.60344-1.9749 0.60344-0.74972 0-0.93258-0.62172-0.05486-0.256-0.05486-0.60343 0-0.36572 0.01829-0.82287 0.03657-0.45715 0.07314-1.1886 0.16457-3.2915 0.16457-5.1932 0-1.92-0.05486-2.3223-0.07314-0.65829-0.45715-0.93258l-0.128-0.09143q-0.23772-0.16457-0.23772-0.43886 0-0.60344 1.024-1.152 1.0423-0.54858 1.6274-0.54858 0.65829 0 0.65829 0.65829z"/>
   <path d="m94.493 27.412q0-0.29257-0.14629-0.54858-0.128-0.256-0.34743-0.45715-0.21943-0.20114-0.21943-0.43886 0-0.62172 0.95087-1.0972 0.95087-0.49372 1.5909-0.49372 0.65829 0 0.67658 0.65829 0 0.45715-0.09143 1.6457-0.07314 1.1703-0.07314 2.176 0 2.432 0.43886 3.0537 0.256 0.14629 0.256 0.45715 0 0.60344-0.67658 0.95087-0.65829 0.34743-1.4994 0.34743-1.1154 0-1.1154-0.74972 0-0.03657 0.05486-0.42058 0.256-1.4629 0.256-3.2732zm2.688-5.8149q0 0.67658-0.65829 1.0972-0.64001 0.40229-1.2434 0.40229-0.60344 0-0.95087-0.21943-0.32915-0.23772-0.32915-0.62172 0-0.69486 0.65829-1.1154 0.65829-0.43886 1.2434-0.43886 0.60344 0 0.93258 0.23772 0.34743 0.23772 0.34743 0.65829z"/>
   <path d="m100.62 21.816-0.0366 0.87772q0 0.47543 0.20115 0.53029 0.21943 0.05486 0.42057 0.05486 0.20115 0 0.60344-0.03657 0.384 0 0.384 0.49372 0 0.93258-1.3349 1.4446-0.18286 0.07314-0.256 0.32915-0.10972 1.1154-0.10972 2.6149 0 1.4994 0.10972 1.9749 0.0914 0.43886 0.65829 0.53029 0.128 0 0.23772 0.128 0.20114 0.23772 0.20114 0.47543 0 0.21943-0.0366 0.43886-0.0366 0.20114-0.18286 0.58515-0.128 0.36572-0.34743 0.69486-0.20115 0.31086-0.62172 0.54858-0.42058 0.23772-0.95087 0.23772-0.9143 0-1.3166-1.0789-0.14629-0.42058-0.14629-1.0057l0.14629-4.9189q0-0.89601-0.10972-1.4629-0.09143-0.56686-0.69486-1.0606-0.256-0.18286-0.256-0.512 0-0.32915 0.32915-0.65829 1.0057-0.62172 1.8469-1.9566 0.256-0.34743 0.64001-0.34743 0.62172 0 0.62172 1.0789z"/>
   <path d="m104.5 27.905q0 0.10972 0.0731 0.18286 0.0731 0.09143 0.18286 0.09143 1.0423-0.09143 1.3897-0.98744 0.0914-0.20114 0.128-0.47543-0.0183-0.64001-0.51201-0.64001-0.56686 0-0.87772 0.54858-0.29258 0.54858-0.384 1.28zm1.2434-3.5109q1.2252 0 1.9017 0.62172 0.69486 0.62172 0.69486 1.8834t-1.0057 2.0846q-0.98744 0.82286-2.5052 0.82286-0.21943 0-0.21943 0.21943 0 0.43886 0.31086 0.76801 0.32915 0.31086 0.87772 0.31086 0.56687 0 1.0057-0.512 0.45715-0.512 0.78629-0.512 0.34743 0 0.54858 0.29257 0.20114 0.29257 0.20114 0.84115 0 0.53029-0.27428 1.0789-0.25601 0.53029-0.62172 0.80458-0.36572 0.27429-0.82287 0.43886-0.67658 0.256-1.4446 0.256-0.74972 0-1.408-0.36572t-1.024-0.98744q-0.71315-1.2434-0.71315-2.7429 0-1.5177 0.36572-2.6332 0.36571-1.1154 1.2434-1.8834 0.89601-0.78629 2.1029-0.78629z"/>
  </g>
 </g>
</svg>
